<svg aria-hidden="true" style="width:0;height:0;position:absolute;overflow:hidden" xmlns="http://www.w3.org/2000/svg"><defs><symbol id="icon-logos" viewBox="0 0 32 32"><path d="M20.622 5.888c0 5.049-.028 5.931-.213 6.116-.242.242-.284.654-.071.654.156 0 .185.469.057 1.124-.071.341-.171.441-.441.441-.185 0-.526.1-.754.213-.242.128-.896.228-1.593.242-1.081.043-1.18.014-1.237-.242-.028-.156-.199-.469-.384-.683-.185-.228-.341-.512-.341-.654s-.142-.384-.327-.555c-.953-.896-1.636.284-.939 1.607.256.469.299.711.213 1.508-.043.526-.043 1.067 0 1.18.114.299.612.284.953-.028.213-.171.299-.199.341-.071.1.299.327.213.327-.114 0-.228.043-.27.185-.156.085.071.654.299 1.237.498 1.067.37 1.067.384 1.052.868-.014.284-.128.668-.256.868-.213.313-.313.356-.74.27-.27-.043-.569-.028-.668.057-.114.1-.256.1-.384.028-.114-.085-.384-.142-.583-.142s-.996-.185-1.778-.427c-1.664-.498-2.56-.526-3.698-.128-.455.171-1.678.398-2.702.526-1.607.185-1.991.199-2.674.028-.469-.114-.796-.27-.796-.384 0-.1-.114-.185-.256-.185s-.711-.228-1.294-.498c-1.081-.526-1.65-.626-1.764-.313-.142.37.313 1.308.839 1.735.284.228.768.668 1.081.953.597.583.896.654 1.508.356.555-.284 1.522-.284 2.02-.028.242.128.498.185.583.128.085-.043.555 0 1.052.1.981.185 2.574.057 3.428-.299.384-.171.526-.156.953.057.597.284.796.512.427.512-.142 0-.484.185-.754.412-.484.398-.484.398-.242.768.469.711.754.754 1.479.185.37-.284.711-.512.768-.512s.299.185.526.427c.455.441.967.54 1.465.284.384-.213.981.142 1.323.754.299.583.839.839 1.792.882 1.479.057 1.436.612-.228 2.873-.441.597.299 1.18 1.493 1.18.469 0 .569-.071.924-.64.228-.356.498-.711.597-.796.114-.085.199-.299.199-.469 0-.37-.484-.939-.782-.939-.114 0-.213-.057-.213-.114 0-.071.199-.1.427-.057.256.043.583-.043.811-.199.711-.455 2.873-2.332 3.143-2.731.427-.597.882-1.607.882-1.963 0-.171.199-.924.427-1.692.555-1.778.54-2.261-.014-3.1-.484-.725-.839-.896-1.621-.754-.569.114-.54.199-.498-1.806.014-.924 0-.981-.469-1.451-.441-.441-.583-.498-1.195-.498-1.422 0-2.489 1.308-2.048 2.503.1.256.142.54.1.612s0 .199.1.284c.114.085.284.412.384.725.171.512.228.569.668.569.612 0 .597.142-.085.512l-.569.313-.299-.327c-.512-.555-.868-1.38-.683-1.593.185-.228.256-2.432.071-2.503-.057-.014-.114-2.773-.1-6.116 0-3.342-.028-6.073-.071-6.073s-.071 2.645-.071 5.888z"/></symbol><symbol id="icon-search" viewBox="0 0 32 32"><path d="m31.008 27.231-7.58-6.447c-.784-.705-1.622-1.029-2.299-.998a11.954 11.954 0 0 0 2.87-7.787c0-6.627-5.373-12-12-12s-12 5.373-12 12 5.373 12 12 12c2.972 0 5.691-1.081 7.787-2.87-.031.677.293 1.515.998 2.299l6.447 7.58c1.104 1.226 2.907 1.33 4.007.23s.997-2.903-.23-4.007zM12 20a8 8 0 1 1 0-16 8 8 0 0 1 0 16z"/></symbol></defs></svg>