
<svg version="1.0" xmlns="http://www.w3.org/2000/svg"
 width="225.000000pt" height="225.000000pt" viewBox="0 0 225.000000 225.000000"
 preserveAspectRatio="xMidYMid meet">
<metadata>
Created by potrace 1.16, written by Peter Selinger 2001-2019
</metadata>
<g transform="translate(0.000000,225.000000) scale(0.100000,-0.100000)"
fill="#000000" stroke="none">
<path d="M1450 1836 c0 -355 -2 -417 -15 -430 -17 -17 -20 -46 -5 -46 11 0 13
-33 4 -79 -5 -24 -12 -31 -31 -31 -13 0 -37 -7 -53 -15 -17 -9 -63 -16 -112
-17 -76 -3 -83 -1 -87 17 -2 11 -14 33 -27 48 -13 16 -24 36 -24 46 0 10 -10
27 -23 39 -67 63 -115 -20 -66 -113 18 -33 21 -50 15 -106 -3 -37 -3 -75 0
-83 8 -21 43 -20 67 2 15 12 21 14 24 5 7 -21 23 -15 23 8 0 16 3 19 13 11 6
-5 46 -21 87 -35 75 -26 75 -27 74 -61 -1 -20 -9 -47 -18 -61 -15 -22 -22 -25
-52 -19 -19 3 -40 2 -47 -4 -8 -7 -18 -7 -27 -2 -8 6 -27 10 -41 10 -14 0 -70
13 -125 30 -117 35 -180 37 -260 9 -32 -12 -118 -28 -190 -37 -113 -13 -140
-14 -188 -2 -33 8 -56 19 -56 27 0 7 -8 13 -18 13 -10 0 -50 16 -91 35 -76 37
-116 44 -124 22 -10 -26 22 -92 59 -122 20 -16 54 -47 76 -67 42 -41 63 -46
106 -25 39 20 107 20 142 2 17 -9 35 -13 41 -9 6 3 39 0 74 -7 69 -13 181 -4
241 21 27 12 37 11 67 -4 42 -20 56 -36 30 -36 -10 0 -34 -13 -53 -29 -34 -28
-34 -28 -17 -54 33 -50 53 -53 104 -13 26 20 50 36 54 36 4 0 21 -13 37 -30
32 -31 68 -38 103 -20 27 15 69 -10 93 -53 21 -41 59 -59 126 -62 104 -4 101
-43 -16 -202 -31 -42 21 -83 105 -83 33 0 40 5 65 45 16 25 35 50 42 56 8 6
14 21 14 33 0 26 -34 66 -55 66 -8 0 -15 4 -15 8 0 5 14 7 30 4 18 -3 41 3 57
14 50 32 202 164 221 192 30 42 62 113 62 138 0 12 14 65 30 119 39 125 38
159 -1 218 -34 51 -59 63 -114 53 -40 -8 -38 -14 -35 127 1 65 0 69 -33 102
-31 31 -41 35 -84 35 -100 0 -175 -92 -144 -176 7 -18 10 -38 7 -43 -3 -5 0
-14 7 -20 8 -6 20 -29 27 -51 12 -36 16 -40 47 -40 43 0 42 -10 -6 -36 l-40
-22 -21 23 c-36 39 -61 97 -48 112 13 16 18 171 5 176 -4 1 -8 195 -7 430 0
235 -2 427 -5 427 -3 0 -5 -186 -5 -414z"/>
</g>
</svg>
