<svg aria-hidden="true" style="position: absolute; width: 0; height: 0; overflow: hidden;" version="1.1" xmlns="http://www.w3.org/2000/svg" xmlns:xlink="http://www.w3.org/1999/xlink">
<defs>
<symbol id="icon-logos" viewBox="0 0 32 32">
<path d="M20.622 5.888c0 5.049-0.028 5.931-0.213 6.116-0.242 0.242-0.284 0.654-0.071 0.654 0.156 0 0.185 0.469 0.057 1.124-0.071 0.341-0.171 0.441-0.441 0.441-0.185 0-0.526 0.1-0.754 0.213-0.242 0.128-0.896 0.228-1.593 0.242-1.081 0.043-1.18 0.014-1.237-0.242-0.028-0.156-0.199-0.469-0.384-0.683-0.185-0.228-0.341-0.512-0.341-0.654s-0.142-0.384-0.327-0.555c-0.953-0.896-1.636 0.284-0.939 1.607 0.256 0.469 0.299 0.711 0.213 1.508-0.043 0.526-0.043 1.067 0 1.18 0.114 0.299 0.612 0.284 0.953-0.028 0.213-0.171 0.299-0.199 0.341-0.071 0.1 0.299 0.327 0.213 0.327-0.114 0-0.228 0.043-0.27 0.185-0.156 0.085 0.071 0.654 0.299 1.237 0.498 1.067 0.37 1.067 0.384 1.052 0.868-0.014 0.284-0.128 0.668-0.256 0.868-0.213 0.313-0.313 0.356-0.74 0.27-0.27-0.043-0.569-0.028-0.668 0.057-0.114 0.1-0.256 0.1-0.384 0.028-0.114-0.085-0.384-0.142-0.583-0.142s-0.996-0.185-1.778-0.427c-1.664-0.498-2.56-0.526-3.698-0.128-0.455 0.171-1.678 0.398-2.702 0.526-1.607 0.185-1.991 0.199-2.674 0.028-0.469-0.114-0.796-0.27-0.796-0.384 0-0.1-0.114-0.185-0.256-0.185s-0.711-0.228-1.294-0.498c-1.081-0.526-1.65-0.626-1.764-0.313-0.142 0.37 0.313 1.308 0.839 1.735 0.284 0.228 0.768 0.668 1.081 0.953 0.597 0.583 0.896 0.654 1.508 0.356 0.555-0.284 1.522-0.284 2.020-0.028 0.242 0.128 0.498 0.185 0.583 0.128 0.085-0.043 0.555 0 1.052 0.1 0.981 0.185 2.574 0.057 3.428-0.299 0.384-0.171 0.526-0.156 0.953 0.057 0.597 0.284 0.796 0.512 0.427 0.512-0.142 0-0.484 0.185-0.754 0.412-0.484 0.398-0.484 0.398-0.242 0.768 0.469 0.711 0.754 0.754 1.479 0.185 0.37-0.284 0.711-0.512 0.768-0.512s0.299 0.185 0.526 0.427c0.455 0.441 0.967 0.54 1.465 0.284 0.384-0.213 0.981 0.142 1.323 0.754 0.299 0.583 0.839 0.839 1.792 0.882 1.479 0.057 1.436 0.612-0.228 2.873-0.441 0.597 0.299 1.18 1.493 1.18 0.469 0 0.569-0.071 0.924-0.64 0.228-0.356 0.498-0.711 0.597-0.796 0.114-0.085 0.199-0.299 0.199-0.469 0-0.37-0.484-0.939-0.782-0.939-0.114 0-0.213-0.057-0.213-0.114 0-0.071 0.199-0.1 0.427-0.057 0.256 0.043 0.583-0.043 0.811-0.199 0.711-0.455 2.873-2.332 3.143-2.731 0.427-0.597 0.882-1.607 0.882-1.963 0-0.171 0.199-0.924 0.427-1.692 0.555-1.778 0.54-2.261-0.014-3.1-0.484-0.725-0.839-0.896-1.621-0.754-0.569 0.114-0.54 0.199-0.498-1.806 0.014-0.924 0-0.981-0.469-1.451-0.441-0.441-0.583-0.498-1.195-0.498-1.422 0-2.489 1.308-2.048 2.503 0.1 0.256 0.142 0.54 0.1 0.612s0 0.199 0.1 0.284c0.114 0.085 0.284 0.412 0.384 0.725 0.171 0.512 0.228 0.569 0.668 0.569 0.612 0 0.597 0.142-0.085 0.512l-0.569 0.313-0.299-0.327c-0.512-0.555-0.868-1.38-0.683-1.593 0.185-0.228 0.256-2.432 0.071-2.503-0.057-0.014-0.114-2.773-0.1-6.116 0-3.342-0.028-6.073-0.071-6.073s-0.071 2.645-0.071 5.888z"></path>
</symbol>
<symbol id="icon-search" viewBox="0 0 32 32">
<path d="M31.008 27.231l-7.58-6.447c-0.784-0.705-1.622-1.029-2.299-0.998 1.789-2.096 2.87-4.815 2.87-7.787 0-6.627-5.373-12-12-12s-12 5.373-12 12 5.373 12 12 12c2.972 0 5.691-1.081 7.787-2.87-0.031 0.677 0.293 1.515 0.998 2.299l6.447 7.58c1.104 1.226 2.907 1.33 4.007 0.23s0.997-2.903-0.23-4.007zM12 20c-4.418 0-8-3.582-8-8s3.582-8 8-8 8 3.582 8 8-3.582 8-8 8z"></path>
</symbol>
</defs>
</svg>
